# xmcd CD database file
#
# Track frame offsets:
#	180
#	27152
#	46955
#	73432
#	95054
#	125619
#	153847
#	183525
#	221411
#	252770
#	277203
#	298510
#	317693
#
# Disc length: 4465 seconds
#
# Revision: 3
# Processed by: cddbd v1.5.2PL0 Copyright (c) Steve Scherf et al.
# Submitted via: CDex 1.70beta2
#
DISCID=c8116f0d
DTITLE=Dire Straits - The Ballads
DYEAR=1900
DGENRE=
TTITLE0=You And Your Friend
TTITLE1=Ticket To Heaven
TTITLE2=Romeo And Juliet
TTITLE3=Hand In Hand
TTITLE4=Private Investigation
TTITLE5=Love Over Gold
TTITLE6=Your Latest Trick
TTITLE7=Why Worry
TTITLE8=Brothers In Arms
TTITLE9=Water Of Love
TTITLE10=Wild West End
TTITLE11=News
TTITLE12=Where Do You Think You're Going
EXTD=
EXTT0=
EXTT1=
EXTT2=
EXTT3=
EXTT4=
EXTT5=
EXTT6=
EXTT7=
EXTT8=
EXTT9=
EXTT10=
EXTT11=
EXTT12=
PLAYORDER=
